<svg width="20" height="20" viewBox="0 0 20 20" fill="none" xmlns="http://www.w3.org/2000/svg">
<path d="M19.7873 8.12754L10.307 1.18625C10.1242 1.05242 9.87583 1.05242 9.6931 1.18625L0.212718 8.12754C-0.0188446 8.29711 -0.069157 8.62226 0.100413 8.85383C0.269983 9.08539 0.595178 9.13562 0.826701 8.96613L10 2.24957L19.1733 8.96609C19.2658 9.03386 19.3733 9.06648 19.4799 9.06648C19.6399 9.06648 19.7978 8.99285 19.8996 8.85379C20.0692 8.62226 20.0189 8.29711 19.7873 8.12754Z" fill="#F03F29"/>
<path d="M17.2752 9.08374C16.9882 9.08374 16.7555 9.3164 16.7555 9.60339V17.8748H12.5984V13.3598C12.5984 11.9269 11.4327 10.7613 9.99996 10.7613C8.56723 10.7613 7.40152 11.927 7.40152 13.3598V17.8749H3.24437V9.60343C3.24437 9.31644 3.01168 9.08378 2.72473 9.08378C2.43777 9.08378 2.20508 9.31644 2.20508 9.60343V18.3946C2.20508 18.6816 2.43777 18.9142 2.72473 18.9142H7.92117C8.19445 18.9142 8.41809 18.7031 8.43879 18.435C8.44004 18.4229 8.44082 18.4096 8.44082 18.3946V13.3598C8.44082 12.5001 9.14023 11.8007 9.99996 11.8007C10.8597 11.8007 11.5591 12.5001 11.5591 13.3598V18.3946C11.5591 18.4095 11.5599 18.4226 11.5611 18.4346C11.5816 18.7028 11.8053 18.9142 12.0787 18.9142H17.2752C17.5622 18.9142 17.7948 18.6816 17.7948 18.3946V9.60343C17.7948 9.3164 17.5621 9.08374 17.2752 9.08374Z" fill="#F03F29"/>
</svg>
