<svg width="101" height="101" viewBox="0 0 101 101" fill="none" xmlns="http://www.w3.org/2000/svg">
<path d="M50.8896 94.0281H50.8902C74.7846 94.0016 94.1467 74.6396 94.1731 50.7452V50.7446C94.1731 26.8397 74.7946 7.46112 50.8896 7.46112C26.9847 7.46112 7.60614 26.8397 7.60614 50.7446C7.60614 74.6496 26.9847 94.0281 50.8896 94.0281ZM1.38965 50.7446C1.38965 23.4073 23.5521 1.24479 50.8893 1.24463C78.215 1.27668 100.36 23.4195 100.39 50.7452C100.389 78.0843 78.2269 100.245 50.8896 100.245C23.5522 100.245 1.38965 78.084 1.38965 50.7446Z" fill="#0FD30B" stroke="white"/>
<path d="M69.935 37.9829L44.4841 62.2957L30.9893 48.799C29.7207 47.5304 27.6636 47.5304 26.3968 48.799C25.1282 50.0677 25.1282 52.1247 26.3968 53.3934L42.1353 69.1319C43.3822 70.3788 45.3993 70.4023 46.6752 69.1826L74.4206 42.6805C75.2706 41.8813 75.6276 40.6869 75.3558 39.5524C75.0821 38.4179 74.2212 37.5171 73.1012 37.1927C71.9793 36.8683 70.7705 37.1692 69.9332 37.9829H69.935Z" fill="#0FD30B"/>
</svg>
